<svg xmlns="http://www.w3.org/2000/svg" width="760" height="609" viewBox="0 0 934 748" font-family="Helvetica, Arial, sans-serif">
<rect x="0" y="0" width="934" height="748" fill="#ffffff"/>
<defs><marker id="arrowgrey" viewBox="0 0 10 10" refX="9" refY="5" markerWidth="7" markerHeight="7" orient="auto-start-reverse"><path d="M 0 0 L 10 5 L 0 10 z" fill="#8a8f98"/></marker><marker id="arrowred" viewBox="0 0 10 10" refX="9" refY="5" markerWidth="7" markerHeight="7" orient="auto-start-reverse"><path d="M 0 0 L 10 5 L 0 10 z" fill="#c0392b"/></marker><marker id="arrowred-lg" viewBox="0 0 12 12" refX="10" refY="6" markerWidth="14" markerHeight="14" markerUnits="userSpaceOnUse" orient="auto-start-reverse"><path d="M 0 0 L 12 6 L 0 12 z" fill="#c0392b"/></marker><marker id="arrowred-rd" viewBox="-1 -1 15 15" refX="10.5" refY="6" markerWidth="15" markerHeight="15" markerUnits="userSpaceOnUse" orient="auto-start-reverse"><path d="M 1 1 L 12.5 6 L 1 11 Z" fill="#c0392b" stroke="#c0392b" stroke-width="1.6" stroke-linejoin="round"/></marker></defs>
<rect x="18.0" y="18.0" width="602.0" height="114.0" rx="10" fill="#eef1f5" stroke="#5b6b7f" stroke-width="1.6"/>
<circle cx="44.0" cy="42.0" r="11.0" fill="none" stroke="#5b6b7f" stroke-width="1.6"/>
<ellipse cx="44" cy="42" rx="5" ry="11" fill="none" stroke="#5b6b7f" stroke-width="1.2"/>
<line x1="33.0" y1="42.0" x2="55.0" y2="42.0" stroke="#5b6b7f" stroke-width="1.2"/>
<text x="32.0" y="72.0" font-family="Helvetica, Arial, sans-serif" font-size="15" font-weight="bold" fill="#5b6b7f" text-anchor="start">1)</text>
<text x="58.0" y="70.0" font-family="Helvetica, Arial, sans-serif" font-size="12" font-weight="bold" fill="#5b6b7f" text-anchor="start">External Actors —</text>
<text x="58.0" y="85.0" font-family="Helvetica, Arial, sans-serif" font-size="12" font-weight="bold" fill="#5b6b7f" text-anchor="start">Internet</text>
<text x="58.0" y="100.0" font-family="Helvetica, Arial, sans-serif" font-size="12" font-weight="bold" fill="#5b6b7f" text-anchor="start">(untrusted)</text>
<rect x="182.0" y="38.0" width="132.0" height="74.0" rx="7" fill="#f4faf6" stroke="#2e8b57" stroke-width="1.5"/>
<circle cx="198.0" cy="58.0" r="6.0" fill="none" stroke="#2e8b57" stroke-width="1.4"/>
<rect x="191.0" y="66.0" width="14.0" height="9.0" rx="2" fill="none" stroke="#2e8b57" stroke-width="1.4"/>
<text x="212.0" y="60.0" font-family="Helvetica, Arial, sans-serif" font-size="10.5" font-weight="bold" fill="#2e8b57" text-anchor="start">Shop User</text>
<text x="212.0" y="75.0" font-family="Helvetica, Arial, sans-serif" font-size="9" font-weight="normal" fill="#6b7280" text-anchor="start" font-style="italic">legitimate customer</text>
<rect x="328.0" y="38.0" width="132.0" height="74.0" rx="7" fill="#fff7f7" stroke="#c0392b" stroke-width="1.6"/>
<circle cx="347.0" cy="61.0" r="9.0" fill="none" stroke="#c0392b" stroke-width="1.5"/>
<text x="347.0" y="65.0" font-family="Helvetica, Arial, sans-serif" font-size="12" font-weight="bold" fill="#c0392b" text-anchor="middle">!</text>
<text x="364.0" y="58.0" font-family="Helvetica, Arial, sans-serif" font-size="11" font-weight="bold" fill="#c0392b" text-anchor="start">Anonymous</text>
<text x="364.0" y="71.0" font-family="Helvetica, Arial, sans-serif" font-size="11" font-weight="bold" fill="#c0392b" text-anchor="start">Internet</text>
<text x="342.0" y="88.0" font-family="Helvetica, Arial, sans-serif" font-size="9" font-weight="normal" fill="#6b7280" text-anchor="start" font-style="italic">no account; registers</text>
<text x="342.0" y="99.0" font-family="Helvetica, Arial, sans-serif" font-size="9" font-weight="normal" fill="#6b7280" text-anchor="start" font-style="italic">in seconds when</text>
<rect x="474.0" y="38.0" width="132.0" height="74.0" rx="7" fill="#fff7f7" stroke="#c0392b" stroke-width="1.6"/>
<circle cx="493.0" cy="61.0" r="9.0" fill="none" stroke="#c0392b" stroke-width="1.5"/>
<text x="493.0" y="65.0" font-family="Helvetica, Arial, sans-serif" font-size="12" font-weight="bold" fill="#c0392b" text-anchor="middle">!</text>
<text x="510.0" y="58.0" font-family="Helvetica, Arial, sans-serif" font-size="11" font-weight="bold" fill="#c0392b" text-anchor="start">Authenticated</text>
<text x="510.0" y="71.0" font-family="Helvetica, Arial, sans-serif" font-size="11" font-weight="bold" fill="#c0392b" text-anchor="start">Internet</text>
<text x="488.0" y="88.0" font-family="Helvetica, Arial, sans-serif" font-size="9" font-weight="normal" fill="#6b7280" text-anchor="start" font-style="italic">owns a regular</text>
<text x="488.0" y="99.0" font-family="Helvetica, Arial, sans-serif" font-size="9" font-weight="normal" fill="#6b7280" text-anchor="start" font-style="italic">account; logged in</text>
<rect x="18.0" y="166.0" width="602.0" height="44.0" rx="10" fill="#f5f6f8" stroke="#c3c9d2" stroke-width="1.2" stroke-dasharray="5 4"/>
<rect x="32.0" y="179.0" width="24.0" height="18.0" rx="2" fill="none" stroke="#9aa2ad" stroke-width="1.6"/>
<line x1="32.0" y1="185.0" x2="56.0" y2="185.0" stroke="#9aa2ad" stroke-width="1.2"/>
<circle cx="35.0" cy="182.0" r="0.9" fill="#9aa2ad" stroke="none" stroke-width="1.0"/>
<circle cx="38.2" cy="182.0" r="0.9" fill="#9aa2ad" stroke="none" stroke-width="1.0"/>
<circle cx="41.4" cy="182.0" r="0.9" fill="#9aa2ad" stroke="none" stroke-width="1.0"/>
<text x="32.0" y="192.0" font-family="Helvetica, Arial, sans-serif" font-size="13" font-weight="bold" fill="#9aa2ad" text-anchor="start">2)</text>
<text x="58.0" y="192.0" font-family="Helvetica, Arial, sans-serif" font-size="11.5" font-weight="bold" fill="#9aa2ad" text-anchor="start">Client Tier</text>
<text x="394.0" y="192.0" font-family="Helvetica, Arial, sans-serif" font-size="11" font-weight="normal" fill="#9aa2ad" text-anchor="middle" font-style="italic">no distinct client tier — server-rendered</text>
<rect x="18.0" y="244.0" width="602.0" height="130.0" rx="10" fill="#e9f6ef" stroke="#2e8b57" stroke-width="1.6"/>
<rect x="32.0" y="261.0" width="24.0" height="6.0" rx="1" fill="none" stroke="#2e8b57" stroke-width="1.4"/>
<circle cx="52.0" cy="264.0" r="1.1" fill="#2e8b57" stroke="none" stroke-width="1.0"/>
<rect x="32.0" y="269.0" width="24.0" height="6.0" rx="1" fill="none" stroke="#2e8b57" stroke-width="1.4"/>
<circle cx="52.0" cy="272.0" r="1.1" fill="#2e8b57" stroke="none" stroke-width="1.0"/>
<text x="32.0" y="298.0" font-family="Helvetica, Arial, sans-serif" font-size="15" font-weight="bold" fill="#2e8b57" text-anchor="start">3)</text>
<text x="58.0" y="296.0" font-family="Helvetica, Arial, sans-serif" font-size="12" font-weight="bold" fill="#2e8b57" text-anchor="start">Application Tier —</text>
<text x="58.0" y="311.0" font-family="Helvetica, Arial, sans-serif" font-size="12" font-weight="bold" fill="#2e8b57" text-anchor="start">Java / Spring</text>
<line x1="58.0" y1="333.5" x2="72.0" y2="333.5" stroke="#475569" stroke-width="1.8" stroke-dasharray="4 3"/>
<text x="78.0" y="337.0" font-family="Helvetica, Arial, sans-serif" font-size="9" font-weight="normal" fill="#475569" text-anchor="start">outbound: tb-6</text>
<rect x="217.0" y="264.0" width="168.0" height="90.0" rx="9" fill="#ffffff" stroke="#2e8b57" stroke-width="1.5"/>
<rect x="218.5" y="307.0" width="165.0" height="45.5" rx="7" fill="#f5f7fb" stroke="none" stroke-width="1.0"/>
<circle cx="371.0" cy="277.0" r="7.0" fill="#fff" stroke="#c0392b" stroke-width="1.3"/>
<ellipse cx="371.0" cy="277.0" rx="3.2" ry="7.0" fill="none" stroke="#c0392b" stroke-width="0.9"/>
<line x1="364.0" y1="277.0" x2="378.0" y2="277.0" stroke="#c0392b" stroke-width="0.9"/>
<line x1="371.0" y1="270.0" x2="371.0" y2="284.0" stroke="#c0392b" stroke-width="0.9"/>
<text x="301.0" y="283.0" font-family="Helvetica, Arial, sans-serif" font-size="11" font-weight="bold" fill="#1f2733" text-anchor="middle">C-01 · Spring Boot</text>
<text x="301.0" y="297.0" font-family="Helvetica, Arial, sans-serif" font-size="11" font-weight="bold" fill="#1f2733" text-anchor="middle">Web Application</text>
<circle cx="270.5" cy="321.0" r="6.0" fill="#d64545" stroke="none" stroke-width="1.0"/>
<text x="282.5" y="325.0" font-family="Helvetica, Arial, sans-serif" font-size="11" font-weight="bold" fill="#1f2733" text-anchor="start">8</text>
<circle cx="303.5" cy="321.0" r="6.0" fill="#e8943a" stroke="none" stroke-width="1.0"/>
<text x="315.5" y="325.0" font-family="Helvetica, Arial, sans-serif" font-size="11" font-weight="bold" fill="#1f2733" text-anchor="start">27</text>
<circle cx="247.0" cy="338.0" r="8.5" fill="#c0392b" stroke="#c0392b" stroke-width="1.3"/>
<text x="247.0" y="341.5" font-family="Helvetica, Arial, sans-serif" font-size="10.5" font-weight="bold" fill="#ffffff" text-anchor="middle">1</text>
<circle cx="274.0" cy="338.0" r="8.5" fill="#c0392b" stroke="#c0392b" stroke-width="1.3"/>
<text x="274.0" y="341.5" font-family="Helvetica, Arial, sans-serif" font-size="10.5" font-weight="bold" fill="#ffffff" text-anchor="middle">2</text>
<circle cx="301.0" cy="338.0" r="8.5" fill="#c0392b" stroke="#c0392b" stroke-width="1.3"/>
<text x="301.0" y="341.5" font-family="Helvetica, Arial, sans-serif" font-size="10.5" font-weight="bold" fill="#ffffff" text-anchor="middle">3</text>
<circle cx="328.0" cy="338.0" r="8.5" fill="#c0392b" stroke="#c0392b" stroke-width="1.3"/>
<text x="328.0" y="341.5" font-family="Helvetica, Arial, sans-serif" font-size="10.5" font-weight="bold" fill="#ffffff" text-anchor="middle">4</text>
<circle cx="355.0" cy="338.0" r="8.5" fill="#c0392b" stroke="#c0392b" stroke-width="1.3"/>
<text x="355.0" y="341.5" font-family="Helvetica, Arial, sans-serif" font-size="10.5" font-weight="bold" fill="#ffffff" text-anchor="middle">5</text>
<rect x="403.0" y="264.0" width="168.0" height="90.0" rx="9" fill="#ffffff" stroke="#2e8b57" stroke-width="1.5"/>
<rect x="404.5" y="307.0" width="165.0" height="45.5" rx="7" fill="#f5f7fb" stroke="none" stroke-width="1.0"/>
<circle cx="557.0" cy="277.0" r="7.0" fill="#fff" stroke="#c0392b" stroke-width="1.3"/>
<ellipse cx="557.0" cy="277.0" rx="3.2" ry="7.0" fill="none" stroke="#c0392b" stroke-width="0.9"/>
<line x1="550.0" y1="277.0" x2="564.0" y2="277.0" stroke="#c0392b" stroke-width="0.9"/>
<line x1="557.0" y1="270.0" x2="557.0" y2="284.0" stroke="#c0392b" stroke-width="0.9"/>
<text x="487.0" y="283.0" font-family="Helvetica, Arial, sans-serif" font-size="11" font-weight="bold" fill="#1f2733" text-anchor="middle">C-05 · Docker</text>
<text x="487.0" y="297.0" font-family="Helvetica, Arial, sans-serif" font-size="11" font-weight="bold" fill="#1f2733" text-anchor="middle">Container Image</text>
<circle cx="461.0" cy="321.0" r="6.0" fill="#d64545" stroke="none" stroke-width="1.0"/>
<text x="473.0" y="325.0" font-family="Helvetica, Arial, sans-serif" font-size="11" font-weight="bold" fill="#1f2733" text-anchor="start">1</text>
<circle cx="494.0" cy="321.0" r="6.0" fill="#e8943a" stroke="none" stroke-width="1.0"/>
<text x="506.0" y="325.0" font-family="Helvetica, Arial, sans-serif" font-size="11" font-weight="bold" fill="#1f2733" text-anchor="start">4</text>
<circle cx="473.5" cy="338.0" r="8.5" fill="#c0392b" stroke="#c0392b" stroke-width="1.3"/>
<text x="473.5" y="341.5" font-family="Helvetica, Arial, sans-serif" font-size="10.5" font-weight="bold" fill="#ffffff" text-anchor="middle">1</text>
<circle cx="500.5" cy="338.0" r="8.5" fill="#c0392b" stroke="#c0392b" stroke-width="1.3"/>
<text x="500.5" y="341.5" font-family="Helvetica, Arial, sans-serif" font-size="10.5" font-weight="bold" fill="#ffffff" text-anchor="middle">4</text>
<rect x="18.0" y="408.0" width="602.0" height="182.0" rx="10" fill="#f2ecf9" stroke="#6f42a1" stroke-width="1.6"/>
<ellipse cx="44" cy="425" rx="11" ry="3.4" fill="none" stroke="#6f42a1" stroke-width="1.5"/>
<line x1="33.0" y1="425.0" x2="33.0" y2="439.0" stroke="#6f42a1" stroke-width="1.5"/>
<line x1="55.0" y1="425.0" x2="55.0" y2="439.0" stroke="#6f42a1" stroke-width="1.5"/>
<path d="M 33 439 A 11 3.4 0 0 0 55 439" fill="none" stroke="#6f42a1" stroke-width="1.5"/>
<path d="M 33 432 A 11 3.4 0 0 0 55 432" fill="none" stroke="#6f42a1" stroke-width="1.1"/>
<text x="32.0" y="462.0" font-family="Helvetica, Arial, sans-serif" font-size="15" font-weight="bold" fill="#6f42a1" text-anchor="start">4)</text>
<text x="58.0" y="460.0" font-family="Helvetica, Arial, sans-serif" font-size="12" font-weight="bold" fill="#6f42a1" text-anchor="start">Data Tier</text>
<rect x="217.0" y="428.0" width="168.0" height="90.0" rx="9" fill="#ffffff" stroke="#6f42a1" stroke-width="1.5"/>
<rect x="218.5" y="471.0" width="165.0" height="45.5" rx="7" fill="#f5f7fb" stroke="none" stroke-width="1.0"/>
<text x="301.0" y="447.0" font-family="Helvetica, Arial, sans-serif" font-size="11" font-weight="bold" fill="#1f2733" text-anchor="middle">C-02 · H2 In-Memory</text>
<text x="301.0" y="461.0" font-family="Helvetica, Arial, sans-serif" font-size="11" font-weight="bold" fill="#1f2733" text-anchor="middle">Database</text>
<circle cx="275.0" cy="485.0" r="6.0" fill="#d64545" stroke="none" stroke-width="1.0"/>
<text x="287.0" y="489.0" font-family="Helvetica, Arial, sans-serif" font-size="11" font-weight="bold" fill="#1f2733" text-anchor="start">1</text>
<circle cx="308.0" cy="485.0" r="6.0" fill="#e8943a" stroke="none" stroke-width="1.0"/>
<text x="320.0" y="489.0" font-family="Helvetica, Arial, sans-serif" font-size="11" font-weight="bold" fill="#1f2733" text-anchor="start">3</text>
<rect x="403.0" y="428.0" width="168.0" height="90.0" rx="9" fill="#ffffff" stroke="#6f42a1" stroke-width="1.5"/>
<rect x="404.5" y="471.0" width="165.0" height="45.5" rx="7" fill="#f5f7fb" stroke="none" stroke-width="1.0"/>
<text x="487.0" y="447.0" font-family="Helvetica, Arial, sans-serif" font-size="11" font-weight="bold" fill="#1f2733" text-anchor="middle">C-03 · Legacy SQLite</text>
<text x="487.0" y="461.0" font-family="Helvetica, Arial, sans-serif" font-size="11" font-weight="bold" fill="#1f2733" text-anchor="middle">Auth Backend</text>
<circle cx="477.5" cy="485.0" r="6.0" fill="#e8943a" stroke="none" stroke-width="1.0"/>
<text x="489.5" y="489.0" font-family="Helvetica, Arial, sans-serif" font-size="11" font-weight="bold" fill="#1f2733" text-anchor="start">1</text>
<rect x="310.0" y="540.0" width="168.0" height="30.0" rx="9" fill="#ffffff" stroke="#b8bfca" stroke-width="1.5" stroke-dasharray="4 3"/>
<text x="394.0" y="558.7" font-family="Helvetica, Arial, sans-serif" font-size="8.5" font-weight="bold" fill="#6b7280" text-anchor="middle">C-04 · Local Filesystem Storage</text>
<line x1="394.0" y1="133.0" x2="394.0" y2="165.0" stroke="#c3c9d2" stroke-width="1.3" stroke-dasharray="5 4"/>
<line x1="18.0" y1="227.0" x2="620.0" y2="227.0" stroke="#475569" stroke-width="2.2" stroke-dasharray="10 6"/>
<text x="26.0" y="222.0" font-family="Helvetica, Arial, sans-serif" font-size="9.5" font-weight="bold" fill="#475569" text-anchor="start">trust boundary · external → spring-app (tb-1) · +1 more (see legend)</text>
<line x1="394.0" y1="211.0" x2="394.0" y2="243.0" stroke="#c3c9d2" stroke-width="1.3" stroke-dasharray="5 4"/>
<line x1="18.0" y1="391.0" x2="620.0" y2="391.0" stroke="#475569" stroke-width="2.2" stroke-dasharray="10 6"/>
<text x="26.0" y="386.0" font-family="Helvetica, Arial, sans-serif" font-size="9.5" font-weight="bold" fill="#475569" text-anchor="start">trust boundary · spring-app → h2-database (tb-3) · +2 more (see legend)</text>
<line x1="394.0" y1="375.0" x2="394.0" y2="407.0" stroke="#8a8f98" stroke-width="1.8" marker-end="url(#arrowgrey)"/>
<text x="406.0" y="394.5" font-family="Helvetica, Arial, sans-serif" font-size="10.5" font-weight="bold" fill="#6b7280" text-anchor="start">reads / writes</text>
<path d="M 467.0 112.0 L 467.0 139.0 Q 467.0 148.0 476.0 148.0 L 637.0 148.0 Q 646.0 148.0 646.0 157.0 L 646.0 309.0" fill="none" stroke="#c0392b" stroke-width="3.4" stroke-linecap="round" stroke-linejoin="round"/>
<path d="M 646.0 309.0 L 608.0 309.0" fill="none" stroke="#c0392b" stroke-width="4.0" stroke-linecap="round" stroke-linejoin="round" marker-end="url(#arrowred-rd)"/>
<circle cx="467.0" cy="112.0" r="7.5" fill="#ffffff" stroke="#c0392b" stroke-width="2.2"/>
<circle cx="467.0" cy="112.0" r="3.0" fill="#c0392b" stroke="#c0392b" stroke-width="1"/>
<rect x="690.0" y="18.0" width="226.0" height="214.0" rx="8" fill="#ffffff" stroke="#cbd2da" stroke-width="1.2"/>
<rect x="690.0" y="18.0" width="226.0" height="26.0" rx="8" fill="#1f3a5f" stroke="none" stroke-width="1.0"/>
<rect x="690.0" y="34.0" width="226.0" height="10.0" rx="0" fill="#1f3a5f" stroke="none" stroke-width="1.0"/>
<text x="803.0" y="35.0" font-family="Helvetica, Arial, sans-serif" font-size="11.5" font-weight="bold" fill="#ffffff" text-anchor="middle">Attack Scenarios — by actor</text>
<text x="706.0" y="62.0" font-family="Helvetica, Arial, sans-serif" font-size="10.5" font-weight="bold" fill="#c0392b" text-anchor="start">Anonymous Internet Attacker</text>
<circle cx="718.0" cy="82.5" r="8.5" fill="#c0392b" stroke="#c0392b" stroke-width="1.3"/>
<text x="718.0" y="85.7" font-family="Helvetica, Arial, sans-serif" font-size="9.5" font-weight="bold" fill="#ffffff" text-anchor="middle">1</text>
<text x="734.0" y="86.0" font-family="Helvetica, Arial, sans-serif" font-size="10.5" font-weight="normal" fill="#1f2733" text-anchor="start">Auth Bypass</text>
<circle cx="718.0" cy="106.5" r="8.5" fill="#c0392b" stroke="#c0392b" stroke-width="1.3"/>
<text x="718.0" y="109.7" font-family="Helvetica, Arial, sans-serif" font-size="9.5" font-weight="bold" fill="#ffffff" text-anchor="middle">2</text>
<text x="734.0" y="110.0" font-family="Helvetica, Arial, sans-serif" font-size="10.5" font-weight="normal" fill="#1f2733" text-anchor="start">Injection</text>
<circle cx="718.0" cy="130.5" r="8.5" fill="#c0392b" stroke="#c0392b" stroke-width="1.3"/>
<text x="718.0" y="133.7" font-family="Helvetica, Arial, sans-serif" font-size="9.5" font-weight="bold" fill="#ffffff" text-anchor="middle">3</text>
<text x="734.0" y="134.0" font-family="Helvetica, Arial, sans-serif" font-size="10.5" font-weight="normal" fill="#1f2733" text-anchor="start">RCE</text>
<circle cx="718.0" cy="154.5" r="8.5" fill="#c0392b" stroke="#c0392b" stroke-width="1.3"/>
<text x="718.0" y="157.7" font-family="Helvetica, Arial, sans-serif" font-size="9.5" font-weight="bold" fill="#ffffff" text-anchor="middle">4</text>
<text x="734.0" y="158.0" font-family="Helvetica, Arial, sans-serif" font-size="10.5" font-weight="normal" fill="#1f2733" text-anchor="start">Secret Exposure</text>
<text x="706.0" y="182.0" font-family="Helvetica, Arial, sans-serif" font-size="10.5" font-weight="bold" fill="#c0392b" text-anchor="start">Authenticated Internet Attacker</text>
<circle cx="718.0" cy="202.5" r="8.5" fill="#c0392b" stroke="#c0392b" stroke-width="1.3"/>
<text x="718.0" y="205.7" font-family="Helvetica, Arial, sans-serif" font-size="9.5" font-weight="bold" fill="#ffffff" text-anchor="middle">5</text>
<text x="734.0" y="206.0" font-family="Helvetica, Arial, sans-serif" font-size="10.5" font-weight="normal" fill="#1f2733" text-anchor="start">Privilege Escalation</text>
<rect x="690.0" y="250.0" width="226.0" height="94.0" rx="8" fill="#ffffff" stroke="#cbd2da" stroke-width="1.2"/>
<rect x="690.0" y="250.0" width="226.0" height="26.0" rx="8" fill="#1f3a5f" stroke="none" stroke-width="1.0"/>
<rect x="690.0" y="266.0" width="226.0" height="10.0" rx="0" fill="#1f3a5f" stroke="none" stroke-width="1.0"/>
<text x="803.0" y="267.0" font-family="Helvetica, Arial, sans-serif" font-size="11.5" font-weight="bold" fill="#ffffff" text-anchor="middle">Severity</text>
<circle cx="712.0" cy="290.5" r="7.0" fill="#d64545" stroke="none" stroke-width="1.0"/>
<text x="728.0" y="294.0" font-family="Helvetica, Arial, sans-serif" font-size="11" font-weight="normal" fill="#1f2733" text-anchor="start">Critical</text>
<circle cx="712.0" cy="314.5" r="7.0" fill="#e8943a" stroke="none" stroke-width="1.0"/>
<text x="728.0" y="318.0" font-family="Helvetica, Arial, sans-serif" font-size="11" font-weight="normal" fill="#1f2733" text-anchor="start">High</text>
<rect x="690.0" y="362.0" width="226.0" height="190.0" rx="8" fill="#ffffff" stroke="#cbd2da" stroke-width="1.2"/>
<rect x="690.0" y="362.0" width="226.0" height="26.0" rx="8" fill="#1f3a5f" stroke="none" stroke-width="1.0"/>
<rect x="690.0" y="378.0" width="226.0" height="10.0" rx="0" fill="#1f3a5f" stroke="none" stroke-width="1.0"/>
<text x="803.0" y="379.0" font-family="Helvetica, Arial, sans-serif" font-size="11.5" font-weight="bold" fill="#ffffff" text-anchor="middle">Diagram Legend</text>
<line x1="702.0" y1="402.5" x2="724.0" y2="402.5" stroke="#475569" stroke-width="2.0" stroke-dasharray="4 3"/>
<text x="730.0" y="406.0" font-family="Helvetica, Arial, sans-serif" font-size="10" font-weight="normal" fill="#1f2733" text-anchor="start">trust boundary (listed below)</text>
<circle cx="712.0" cy="426.5" r="7.0" fill="#fff" stroke="#c0392b" stroke-width="1.3"/>
<ellipse cx="712.0" cy="426.5" rx="3.2" ry="7.0" fill="none" stroke="#c0392b" stroke-width="0.9"/>
<line x1="705.0" y1="426.5" x2="719.0" y2="426.5" stroke="#c0392b" stroke-width="0.9"/>
<line x1="712.0" y1="419.5" x2="712.0" y2="433.5" stroke="#c0392b" stroke-width="0.9"/>
<text x="730.0" y="430.0" font-family="Helvetica, Arial, sans-serif" font-size="10" font-weight="normal" fill="#1f2733" text-anchor="start">internet-exposed entry point</text>
<line x1="702.0" y1="450.5" x2="724.0" y2="450.5" stroke="#c0392b" stroke-width="2.6" marker-end="url(#arrowred)"/>
<text x="730.0" y="454.0" font-family="Helvetica, Arial, sans-serif" font-size="10" font-weight="normal" fill="#1f2733" text-anchor="start">direct attack</text>
<line x1="702.0" y1="474.5" x2="724.0" y2="474.5" stroke="#8a8f98" stroke-width="2" marker-end="url(#arrowgrey)"/>
<text x="730.0" y="478.0" font-family="Helvetica, Arial, sans-serif" font-size="10" font-weight="normal" fill="#1f2733" text-anchor="start">legitimate request flow</text>
<circle cx="713.0" cy="498.5" r="8.5" fill="#c0392b" stroke="#c0392b" stroke-width="1.3"/>
<text x="713.0" y="501.7" font-family="Helvetica, Arial, sans-serif" font-size="9.5" font-weight="bold" fill="#ffffff" text-anchor="middle" font-style="italic">n</text>
<text x="730.0" y="502.0" font-family="Helvetica, Arial, sans-serif" font-size="10" font-weight="normal" fill="#1f2733" text-anchor="start">attack scenario (see above)</text>
<rect x="702.0" y="515.5" width="24.0" height="14.0" rx="4" fill="#ffffff" stroke="#b8bfca" stroke-width="1.5" stroke-dasharray="4 3"/>
<text x="734.0" y="526.0" font-family="Helvetica, Arial, sans-serif" font-size="10" font-weight="normal" fill="#1f2733" text-anchor="start">out of scope (not analyzed)</text>
<rect x="690.0" y="570.0" width="226.0" height="142.0" rx="8" fill="#ffffff" stroke="#cbd2da" stroke-width="1.2"/>
<rect x="690.0" y="570.0" width="226.0" height="26.0" rx="8" fill="#1f3a5f" stroke="none" stroke-width="1.0"/>
<rect x="690.0" y="586.0" width="226.0" height="10.0" rx="0" fill="#1f3a5f" stroke="none" stroke-width="1.0"/>
<text x="803.0" y="587.0" font-family="Helvetica, Arial, sans-serif" font-size="11.5" font-weight="bold" fill="#ffffff" text-anchor="middle">Trust Boundaries</text>
<line x1="702.0" y1="610.5" x2="718.0" y2="610.5" stroke="#475569" stroke-width="1.8" stroke-dasharray="4 3"/>
<text x="724.0" y="614.0" font-family="Helvetica, Arial, sans-serif" font-size="9.0" font-weight="normal" fill="#1f2733" text-anchor="start">external → spring-app · tb-1</text>
<line x1="702.0" y1="626.5" x2="718.0" y2="626.5" stroke="#475569" stroke-width="1.8" stroke-dasharray="4 3"/>
<text x="724.0" y="630.0" font-family="Helvetica, Arial, sans-serif" font-size="9.0" font-weight="normal" fill="#1f2733" text-anchor="start">external → container-image · tb-2</text>
<line x1="702.0" y1="642.5" x2="718.0" y2="642.5" stroke="#475569" stroke-width="1.8" stroke-dasharray="4 3"/>
<text x="724.0" y="646.0" font-family="Helvetica, Arial, sans-serif" font-size="9.0" font-weight="normal" fill="#1f2733" text-anchor="start">spring-app → h2-database · tb-3</text>
<line x1="702.0" y1="658.5" x2="718.0" y2="658.5" stroke="#475569" stroke-width="1.8" stroke-dasharray="4 3"/>
<text x="724.0" y="662.0" font-family="Helvetica, Arial, sans-serif" font-size="9.0" font-weight="normal" fill="#1f2733" text-anchor="start">spring-app → file-storage · tb-4</text>
<line x1="702.0" y1="674.5" x2="718.0" y2="674.5" stroke="#475569" stroke-width="1.8" stroke-dasharray="4 3"/>
<text x="724.0" y="678.0" font-family="Helvetica, Arial, sans-serif" font-size="9.0" font-weight="normal" fill="#1f2733" text-anchor="start">spring-app → sqlite-auth · tb-5</text>
<line x1="702.0" y1="690.5" x2="718.0" y2="690.5" stroke="#475569" stroke-width="1.8" stroke-dasharray="4 3"/>
<text x="724.0" y="694.0" font-family="Helvetica, Arial, sans-serif" font-size="9.0" font-weight="normal" fill="#1f2733" text-anchor="start">spring-app → external · tb-6</text>
</svg>
